<?xml version="1.0" encoding="utf-8"?>
<!-- Generator: Adobe Illustrator 19.0.0, SVG Export Plug-In . SVG Version: 6.00 Build 0)  -->
<svg version="1.1" id="Layer_1" xmlns="http://www.w3.org/2000/svg" xmlns:xlink="http://www.w3.org/1999/xlink" x="0px" y="0px"
	 viewBox="0 0 24 25.8" style="enable-background:new 0 0 24 25.8;" xml:space="preserve">
<style type="text/css">
	.st0{fill:#C5001E;}
</style>
<path id="XMLID_6_" class="st0" d="M18.8,13.9l-7.4,7.4c-0.1,0.1-0.2,0.1-0.3,0.1c-0.1,0-0.2,0-0.3-0.1l-4.2-4.2
	c-0.1-0.1-0.1-0.2-0.1-0.3c0-0.1,0-0.2,0.1-0.3l0.7-0.7c0.1-0.1,0.2-0.1,0.3-0.1s0.2,0,0.3,0.1l3.2,3.2l6.4-6.4
	c0.1-0.1,0.2-0.1,0.3-0.1s0.2,0,0.3,0.1l0.7,0.7c0.1,0.1,0.1,0.2,0.1,0.3C18.9,13.7,18.9,13.8,18.8,13.9z M1.8,24h20.3V9.2H1.8V24z
	 M7.4,6.5V2.3c0-0.1,0-0.2-0.1-0.3C7.2,1.9,7.1,1.8,6.9,1.8H6c-0.1,0-0.2,0-0.3,0.1S5.5,2.2,5.5,2.3v4.2c0,0.1,0,0.2,0.1,0.3
	S5.9,6.9,6,6.9h0.9c0.1,0,0.2,0,0.3-0.1C7.3,6.7,7.4,6.6,7.4,6.5z M18.5,6.5V2.3c0-0.1,0-0.2-0.1-0.3c-0.1-0.1-0.2-0.1-0.3-0.1h-0.9
	c-0.1,0-0.2,0-0.3,0.1s-0.1,0.2-0.1,0.3v4.2c0,0.1,0,0.2,0.1,0.3s0.2,0.1,0.3,0.1H18c0.1,0,0.2,0,0.3-0.1
	C18.4,6.7,18.5,6.6,18.5,6.5z M24,5.5V24c0,0.5-0.2,0.9-0.5,1.3s-0.8,0.5-1.3,0.5H1.8c-0.5,0-0.9-0.2-1.3-0.5S0,24.5,0,24V5.5
	C0,5,0.2,4.6,0.5,4.2s0.8-0.5,1.3-0.5h1.8V2.3c0-0.6,0.2-1.2,0.7-1.6C4.8,0.2,5.4,0,6,0h0.9c0.6,0,1.2,0.2,1.6,0.7
	c0.5,0.5,0.7,1,0.7,1.6v1.4h5.5V2.3c0-0.6,0.2-1.2,0.7-1.6c0.5-0.5,1-0.7,1.6-0.7H18c0.6,0,1.2,0.2,1.6,0.7c0.5,0.5,0.7,1,0.7,1.6
	v1.4h1.8c0.5,0,0.9,0.2,1.3,0.5S24,5,24,5.5z"/>
</svg>
