<?xml version="1.0" encoding="utf-8"?>
<!-- Generator: Adobe Illustrator 19.0.0, SVG Export Plug-In . SVG Version: 6.00 Build 0)  -->
<svg version="1.1" id="Layer_1" xmlns="http://www.w3.org/2000/svg" xmlns:xlink="http://www.w3.org/1999/xlink" x="0px" y="0px"
	 viewBox="0 0 24 24" style="enable-background:new 0 0 24 24;" xml:space="preserve">
<style type="text/css">
	.st0{fill:#C5001E;}
</style>
<path id="XMLID_2_" class="st0" d="M14,6.5v7c0,0.1,0,0.3-0.1,0.4S13.6,14,13.5,14h-5c-0.1,0-0.3,0-0.4-0.1S8,13.6,8,13.5v-1
	c0-0.1,0-0.3,0.1-0.4S8.4,12,8.5,12H12V6.5c0-0.1,0-0.3,0.1-0.4S12.4,6,12.5,6h1c0.1,0,0.3,0,0.4,0.1S14,6.4,14,6.5z M20.5,12
	c0-1.5-0.4-3-1.1-4.3s-1.8-2.3-3.1-3.1S13.5,3.5,12,3.5S9,3.9,7.7,4.6S5.4,6.4,4.6,7.7S3.5,10.5,3.5,12s0.4,3,1.1,4.3
	s1.8,2.3,3.1,3.1s2.7,1.1,4.3,1.1s3-0.4,4.3-1.1s2.3-1.8,3.1-3.1S20.5,13.5,20.5,12z M24,12c0,2.2-0.5,4.2-1.6,6s-2.5,3.3-4.4,4.4
	S14.2,24,12,24s-4.2-0.5-6-1.6S2.7,19.9,1.6,18S0,14.2,0,12s0.5-4.2,1.6-6S4.1,2.7,6,1.6S9.8,0,12,0s4.2,0.5,6,1.6s3.3,2.5,4.4,4.4
	S24,9.8,24,12z"/>
</svg>
