<?xml version="1.0" encoding="utf-8"?>
<!-- Generator: Adobe Illustrator 19.0.0, SVG Export Plug-In . SVG Version: 6.00 Build 0)  -->
<svg version="1.1" id="Layer_1" xmlns="http://www.w3.org/2000/svg" xmlns:xlink="http://www.w3.org/1999/xlink" x="0px" y="0px"
	 viewBox="0 0 16 24" style="enable-background:new 0 0 16 24;" xml:space="preserve">
<style type="text/css">
	.st0{fill:#C5001E;}
</style>
<path id="XMLID_2_" class="st0" d="M12,8c0-1.1-0.4-2-1.2-2.8S9.1,4,8,4S6,4.4,5.2,5.2S4,6.9,4,8s0.4,2,1.2,2.8S6.9,12,8,12
	s2-0.4,2.8-1.2S12,9.1,12,8z M16,8c0,1.1-0.2,2.1-0.5,2.8L9.8,22.9c-0.2,0.3-0.4,0.6-0.7,0.8S8.4,24,8,24s-0.7-0.1-1.1-0.3
	s-0.6-0.5-0.7-0.8L0.5,10.8C0.2,10.1,0,9.1,0,8c0-2.2,0.8-4.1,2.3-5.7S5.8,0,8,0s4.1,0.8,5.7,2.3S16,5.8,16,8z"/>
</svg>
