<?xml version="1.0" encoding="utf-8"?>
<!-- Generator: Adobe Illustrator 19.0.0, SVG Export Plug-In . SVG Version: 6.00 Build 0)  -->
<svg version="1.1" id="Layer_1" xmlns="http://www.w3.org/2000/svg" xmlns:xlink="http://www.w3.org/1999/xlink" x="0px" y="0px"
	 viewBox="416 -616 1792 1792" style="enable-background:new 416 -616 1792 1792;" xml:space="preserve">
<style type="text/css">
	.st0{fill:#939393;}
</style>
<path class="st0" d="M1632,216c0-123.3-43.8-228.8-131.5-316.5C1412.8-188.2,1307.3-232,1184-232s-228.8,43.8-316.5,131.5
	S736,92.7,736,216s43.8,228.8,131.5,316.5S1060.7,664,1184,664s228.8-43.8,316.5-131.5C1588.2,444.8,1632,339.3,1632,216z
	 M2144,1048c0,34.7-12.7,64.7-38,90s-55.3,38-90,38c-36,0-66-12.7-90-38l-343-342c-119.3,82.7-252.3,124-399,124
	c-95.3,0-186.5-18.5-273.5-55.5s-162-87-225-150s-113-138-150-225S480,311.3,480,216s18.5-186.5,55.5-273.5s87-162,150-225
	s138-113,225-150S1088.7-488,1184-488s186.5,18.5,273.5,55.5s162,87,225,150s113,138,150,225S1888,120.7,1888,216
	c0,146.7-41.3,279.7-124,399l343,343C2131.7,982.7,2144,1012.7,2144,1048z"/>
</svg>
